<svg width="1617" height="351" viewBox="0 0 1617 351" fill="none" xmlns="http://www.w3.org/2000/svg">
<line x1="843.881" y1="351" x2="843.881" y2="1.00005" stroke="black" stroke-opacity="0.16" stroke-width="0.5"/>
<line x1="914.142" y1="351" x2="914.142" y2="1.00005" stroke="black" stroke-opacity="0.16" stroke-width="0.5"/>
<line x1="984.402" y1="351" x2="984.402" y2="1.00005" stroke="black" stroke-opacity="0.16" stroke-width="0.5"/>
<line x1="1054.66" y1="351" x2="1054.66" y2="1.00005" stroke="black" stroke-opacity="0.16" stroke-width="0.5"/>
<line x1="1124.92" y1="351" x2="1124.92" y2="1.00005" stroke="black" stroke-opacity="0.16" stroke-width="0.5"/>
<line x1="1195.18" y1="351" x2="1195.18" y2="1.00005" stroke="black" stroke-opacity="0.16" stroke-width="0.5"/>
<line x1="1265.45" y1="351" x2="1265.45" y2="1.00005" stroke="black" stroke-opacity="0.16" stroke-width="0.5"/>
<line x1="1335.71" y1="351" x2="1335.71" y2="1.00005" stroke="black" stroke-opacity="0.16" stroke-width="0.5"/>
<line x1="1405.97" y1="351" x2="1405.97" y2="1.00005" stroke="black" stroke-opacity="0.16" stroke-width="0.5"/>
<line x1="1476.23" y1="351" x2="1476.23" y2="1.00005" stroke="black" stroke-opacity="0.16" stroke-width="0.5"/>
<line x1="1546.49" y1="351" x2="1546.49" y2="1.00005" stroke="black" stroke-opacity="0.16" stroke-width="0.5"/>
<line x1="1616.75" y1="351" x2="1616.75" y2="1.00005" stroke="black" stroke-opacity="0.16" stroke-width="0.5"/>
<line x1="0.75" y1="351" x2="0.75" y2="1.00005" stroke="black" stroke-opacity="0.16" stroke-width="0.5"/>
<line x1="71.0107" y1="351" x2="71.0107" y2="1.00005" stroke="black" stroke-opacity="0.16" stroke-width="0.5"/>
<line x1="141.271" y1="351" x2="141.271" y2="1.00005" stroke="black" stroke-opacity="0.16" stroke-width="0.5"/>
<line x1="211.532" y1="351" x2="211.532" y2="1.00005" stroke="black" stroke-opacity="0.16" stroke-width="0.5"/>
<line x1="281.793" y1="351" x2="281.793" y2="1.00005" stroke="black" stroke-opacity="0.16" stroke-width="0.5"/>
<line x1="352.054" y1="351" x2="352.054" y2="1.00005" stroke="black" stroke-opacity="0.16" stroke-width="0.5"/>
<line x1="422.314" y1="351" x2="422.314" y2="1.00005" stroke="black" stroke-opacity="0.16" stroke-width="0.5"/>
<line x1="492.575" y1="351" x2="492.575" y2="1.00005" stroke="black" stroke-opacity="0.16" stroke-width="0.5"/>
<line x1="562.837" y1="351" x2="562.837" y2="1.00005" stroke="black" stroke-opacity="0.16" stroke-width="0.5"/>
<line x1="633.097" y1="351" x2="633.097" y2="1.00005" stroke="black" stroke-opacity="0.16" stroke-width="0.5"/>
<line x1="703.357" y1="351" x2="703.357" y2="1.00005" stroke="black" stroke-opacity="0.16" stroke-width="0.5"/>
<line x1="773.618" y1="351" x2="773.618" y2="1.00005" stroke="black" stroke-opacity="0.16" stroke-width="0.5"/>
<line y1="-0.25" x2="1616" y2="-0.25" transform="matrix(-1 0 0 1 1617 0.521729)" stroke="black" stroke-opacity="0.16" stroke-width="0.5"/>
<line y1="-0.25" x2="1616" y2="-0.25" transform="matrix(-1 0 0 1 1617 70.7826)" stroke="black" stroke-opacity="0.16" stroke-width="0.5"/>
<line y1="-0.25" x2="1616" y2="-0.25" transform="matrix(-1 0 0 1 1617 141.043)" stroke="black" stroke-opacity="0.16" stroke-width="0.5"/>
<line y1="-0.25" x2="1616" y2="-0.25" transform="matrix(-1 0 0 1 1617 210)" stroke="black" stroke-opacity="0.16" stroke-width="0.5"/>
<line y1="-0.25" x2="1616" y2="-0.25" transform="matrix(-1 0 0 1 1617 280.261)" stroke="black" stroke-opacity="0.16" stroke-width="0.5"/>
</svg>
